<?xml version="1.0" standalone="no"?>
<!DOCTYPE svg PUBLIC "-//W3C//DTD SVG 20010904//EN"
 "http://www.w3.org/TR/2001/REC-SVG-20010904/DTD/svg10.dtd">
<svg version="1.0" xmlns="http://www.w3.org/2000/svg"
 width="1024.000000pt" height="1024.000000pt" viewBox="0 0 1024.000000 1024.000000"
 preserveAspectRatio="xMidYMid meet">
<metadata>
Created by potrace 1.14, written by Peter Selinger 2001-2017
</metadata>
<g transform="translate(0.000000,1024.000000) scale(0.100000,-0.100000)"
fill="#000000" stroke="none">
<path d="M0 5120 l0 -5120 5120 0 5120 0 0 5120 0 5120 -5120 0 -5120 0 0
-5120z m5764 3715 c3 -9 0 -15 -9 -15 -8 0 -15 -4 -15 -10 0 -7 -194 -10 -562
-9 -310 1 -552 4 -538 8 16 5 -16 10 -90 15 -295 18 -194 23 486 25 633 1 723
-1 728 -14z m-81 -176 c21 -5 35 -14 32 -19 -6 -10 44 -52 55 -45 5 3 11 1 15
-5 4 -6 11 -8 16 -5 5 4 12 -2 15 -12 26 -81 36 -87 83 -52 25 18 32 19 52 8
13 -7 29 -19 35 -27 6 -9 28 -17 49 -18 20 -2 56 -14 79 -28 37 -22 44 -23 66
-10 33 18 65 18 80 -1 19 -23 3 -51 -40 -70 -22 -10 -40 -24 -40 -32 0 -7 -7
-13 -15 -13 -8 0 -15 7 -15 15 0 15 -88 47 -103 38 -5 -3 -7 -19 -5 -35 3 -20
0 -32 -10 -36 -14 -5 -14 -6 0 -11 15 -5 15 -10 -2 -47 -28 -60 -44 -70 -85
-55 -20 7 -49 9 -69 5 -27 -5 -45 -1 -71 15 -46 27 -61 26 -101 -4 -44 -34
-66 -34 -151 -1 -76 29 -108 57 -143 126 -11 21 -24 40 -30 42 -14 4 4 133 21
154 6 8 25 14 42 14 17 0 39 8 49 17 12 11 37 18 66 18 50 1 65 17 33 35 -12
6 -21 17 -21 25 0 24 54 31 113 14z m478 -9 c13 -8 25 -7 39 0 28 15 59 -4 67
-40 3 -16 9 -27 14 -24 5 3 9 2 9 -2 0 -9 -41 -44 -52 -44 -19 0 -48 21 -48
35 0 8 -5 15 -11 15 -7 0 -9 -10 -6 -26 4 -23 -14 -54 -32 -54 -4 0 -16 9 -25
19 -15 16 -16 23 -5 42 10 20 8 25 -15 45 -24 21 -24 24 -8 33 22 13 48 14 73
1z m184 4 c28 -7 50 -59 38 -87 -7 -15 -6 -35 2 -65 14 -46 10 -82 -9 -82 -6
0 -27 13 -46 29 -32 27 -35 33 -36 87 0 33 -5 68 -12 80 -19 35 11 52 63 38z
m353 -44 c2 -13 -38 -40 -60 -40 -9 0 -6 29 6 48 10 17 50 11 54 -8z m-100
-62 c3 -13 -3 -18 -21 -18 -29 0 -37 7 -30 27 8 19 47 12 51 -9z m-3934 -138
c15 -5 26 -17 26 -27 0 -10 9 -35 20 -56 l20 -37 -29 0 c-36 0 -66 26 -51 44
7 10 3 16 -15 24 -17 8 -25 20 -25 37 0 27 13 31 54 15z m146 -4 c18 -10 30
-11 44 -4 13 7 26 7 43 -1 13 -6 39 -11 58 -11 43 0 88 -49 79 -86 -4 -16 -1
-31 11 -44 20 -23 13 -53 -12 -48 -10 2 -24 16 -33 32 -20 40 -63 77 -74 66
-6 -6 -3 -17 7 -28 17 -19 14 -32 -7 -32 -6 0 -38 25 -71 55 -32 30 -62 56
-67 56 -4 1 -14 2 -20 3 -18 2 -23 37 -6 47 17 11 18 11 48 -5z m3877 -115
c-6 -2 -19 -14 -29 -25 -16 -20 -19 -20 -45 -6 -16 9 -28 24 -28 35 0 17 7 20
42 20 23 1 46 4 50 8 4 5 10 0 14 -10 3 -10 1 -20 -4 -22z m1363 -81 c0 -13
-37 -13 -45 0 -3 6 -3 15 0 20 7 12 45 -5 45 -20z m-4662 -2 c30 -30 7 -84
-31 -74 -60 15 -74 66 -22 77 17 4 32 7 36 8 3 0 10 -4 17 -11z m2514 -144
c16 -3 25 -10 22 -15 -3 -5 0 -9 6 -9 19 0 2 -17 -45 -45 -68 -40 -111 -16
-80 45 16 30 31 40 55 35 8 -2 27 -7 42 -11z m-282 -46 c25 -23 40 -43 33 -45
-7 -2 -9 -11 -6 -19 8 -22 -4 -58 -29 -85 -13 -14 -31 -36 -40 -51 -12 -18
-23 -24 -40 -21 -17 3 -28 -4 -45 -30 -36 -52 -28 -71 19 -46 14 8 27 8 43 1
16 -7 26 -7 34 1 8 8 20 2 47 -24 33 -32 38 -34 97 -31 38 3 74 11 93 23 40
24 50 24 78 -3 48 -48 102 -85 131 -91 17 -3 42 -9 57 -13 21 -5 29 -2 34 11
10 24 -25 85 -47 85 -28 0 -47 26 -47 64 0 19 -3 39 -6 44 -13 21 33 45 84 43
42 0 53 4 75 27 20 22 28 25 43 16 9 -6 19 -22 20 -35 8 -52 26 -63 104 -64
47 0 78 4 86 12 32 31 62 10 62 -43 0 -14 6 -24 14 -24 7 0 25 -9 40 -21 14
-11 34 -19 44 -16 9 2 29 -2 43 -9 23 -12 30 -10 59 11 33 24 34 24 64 6 27
-16 35 -17 61 -5 17 7 42 13 57 14 30 0 41 11 33 32 -4 9 -29 13 -86 14 -57 1
-84 5 -90 15 -22 35 21 57 121 64 87 5 137 -13 154 -57 6 -15 16 -28 23 -28 7
0 15 -11 19 -25 5 -22 10 -24 43 -19 39 6 79 -14 67 -34 -10 -16 -59 -15 -75
1 -19 19 -40 -16 -35 -61 5 -47 -13 -92 -36 -92 -10 0 -27 16 -39 35 -21 36
-29 38 -101 36 -29 -1 -44 -11 -83 -53 -26 -29 -46 -57 -44 -63 7 -20 55 -17
67 4 6 12 20 21 31 21 23 0 36 -27 20 -43 -18 -18 -13 -27 13 -27 52 0 119
-61 100 -91 -4 -7 -8 -24 -9 -37 0 -13 -9 -31 -20 -38 -16 -12 -18 -18 -7 -34
6 -11 12 -26 12 -35 0 -20 59 -85 87 -96 30 -11 30 -40 -1 -75 -22 -27 -25
-27 -62 -16 -69 21 -95 22 -135 2 -21 -11 -40 -24 -44 -30 -3 -5 -18 -10 -33
-10 -40 0 -85 -40 -84 -76 0 -42 -15 -54 -67 -54 -45 0 -48 -2 -64 -39 -12
-26 -26 -41 -42 -45 -15 -4 -30 -19 -38 -39 -17 -38 -80 -97 -106 -97 -10 0
-26 -9 -37 -21 -13 -15 -28 -20 -57 -17 -45 3 -57 -11 -50 -56 3 -17 5 -39 5
-48 -1 -10 3 -18 9 -18 5 0 9 -12 9 -26 0 -38 18 -64 43 -64 40 0 46 16 31 83
-18 75 -13 95 17 70 25 -21 61 -88 52 -97 -4 -3 -2 -6 4 -6 6 0 13 -9 16 -20
3 -13 14 -20 30 -20 18 0 29 -9 41 -34 18 -38 42 -52 62 -35 22 18 42 3 66
-48 13 -26 33 -59 46 -73 12 -14 22 -28 22 -32 0 -5 10 -8 23 -8 24 0 53 27
59 55 1 10 18 26 37 36 18 10 42 27 52 38 43 46 109 34 109 -19 0 -16 -6 -34
-12 -39 -28 -23 -64 -57 -76 -72 -11 -15 -9 -16 25 -13 21 3 47 7 57 9 22 5
46 -11 46 -30 0 -6 -25 -17 -55 -24 -39 -9 -55 -17 -55 -29 0 -22 40 -62 62
-62 37 0 88 -28 88 -49 0 -11 -4 -23 -10 -26 -5 -3 -10 -15 -10 -26 0 -12 -7
-19 -20 -19 -11 0 -20 -4 -20 -10 0 -5 -21 -10 -46 -10 -39 0 -50 -5 -81 -37
-20 -21 -39 -51 -42 -68 -8 -36 -44 -57 -77 -45 -18 7 -25 4 -38 -16 -11 -16
-26 -24 -46 -24 -17 0 -30 5 -30 11 0 6 -7 9 -15 5 -21 -8 -19 27 3 46 28 24
48 27 77 12 15 -8 30 -12 32 -10 9 9 -10 96 -21 96 -6 0 -22 -9 -35 -19 -33
-25 -63 -11 -85 39 -22 50 -69 90 -106 90 -35 0 -45 -14 -41 -57 1 -20 -6 -46
-18 -67 -12 -19 -22 -52 -22 -77 -1 -24 -3 -33 -5 -19 -3 14 -11 75 -20 135
-20 138 -40 222 -97 405 -25 80 -50 172 -57 205 -53 269 -85 375 -150 505 -97
193 -263 354 -464 450 -105 49 -307 128 -401 155 -151 44 -149 44 -354 -69
-244 -134 -337 -220 -476 -441 -32 -49 -55 -79 -51 -65 3 14 6 46 6 72 0 26 6
53 13 60 18 17 10 38 -13 38 -27 0 -52 -29 -44 -52 8 -28 -36 -69 -83 -75 -32
-4 -43 -1 -65 22 -20 20 -42 29 -94 36 -78 11 -133 35 -136 58 -3 34 3 77 14
99 8 16 9 31 2 50 -20 53 -10 62 70 62 80 0 96 9 96 53 0 16 11 42 25 59 41
48 34 88 -23 148 -30 31 -60 52 -80 56 -49 10 -41 35 20 60 47 19 57 20 95 9
23 -7 54 -22 69 -34 20 -15 41 -21 80 -21 51 0 53 1 65 35 14 39 48 52 92 36
22 -9 31 -6 56 14 16 14 38 25 49 25 21 0 37 28 41 74 2 25 58 25 96 -1 19
-13 49 -23 68 -23 28 0 38 6 60 41 15 22 27 45 27 50 0 5 11 14 24 21 20 8 28
7 41 -6 23 -22 62 -31 80 -16 19 16 50 5 69 -25 20 -30 43 -32 71 -5 18 17 26
18 59 9 47 -13 93 -3 129 27 29 25 50 23 78 -6 12 -12 33 -16 75 -16 64 1 65
2 49 67 -5 20 -1 32 16 48 33 31 59 26 109 -21z m958 -20 c16 -16 15 -30 -2
-53 -12 -16 -16 -17 -30 -6 -16 14 -22 52 -9 64 10 11 28 8 41 -5z m-700 -190
c4 -21 -34 -34 -54 -17 -11 9 -12 15 -2 26 15 18 52 13 56 -9z m730 -66 c3
-18 -1 -22 -22 -22 -19 0 -26 5 -26 18 0 39 43 43 48 4z m1550 -117 c0 -25
-13 -31 -36 -17 -17 11 -4 42 18 42 12 0 18 -8 18 -25z m-890 -1 c12 -4 22
-12 22 -20 0 -7 21 -22 46 -33 l46 -21 20 26 c11 14 23 23 26 20 3 -3 10 -2
16 3 11 9 40 14 63 12 6 0 27 -28 45 -61 25 -46 37 -60 51 -56 9 2 17 0 17 -5
0 -5 -5 -9 -10 -9 -14 0 7 -40 29 -57 28 -22 59 -14 92 21 l31 35 47 -17 c42
-16 46 -20 47 -53 1 -19 -2 -44 -6 -55 -8 -21 -139 -104 -164 -104 -8 0 -42
12 -75 26 -44 19 -62 33 -72 56 -6 16 -32 44 -55 62 -41 31 -50 34 -149 41
-100 7 -106 8 -125 35 -11 16 -17 35 -14 44 3 8 -1 29 -9 46 -9 17 -11 32 -6
36 5 3 7 9 4 14 -9 15 45 24 83 14z m-2061 -150 c-3 -3 -12 -4 -19 -1 -8 3 -5
6 6 6 11 1 17 -2 13 -5z m-2223 -13 c3 -5 -1 -12 -10 -15 -22 -9 -24 -8 -24 9
0 16 25 21 34 6z m5032 -37 c-6 -17 -42 -19 -52 -2 -4 6 3 19 16 30 21 17 24
18 33 3 5 -9 6 -23 3 -31z m-3066 -8 c0 -3 -4 -8 -10 -11 -5 -3 -10 -1 -10 4
0 6 5 11 10 11 6 0 10 -2 10 -4z m-51 -20 c-11 -10 -79 -34 -79 -27 0 4 12 12
28 18 27 11 59 16 51 9z m416 -52 c44 -19 114 -48 155 -63 111 -41 245 -104
231 -109 -6 -2 -22 3 -34 11 -12 8 -76 36 -142 62 -66 27 -147 60 -180 75
-170 78 -179 76 -593 -122 -46 -21 -89 -37 -95 -34 -7 2 -5 5 5 5 9 1 18 5 20
9 2 5 59 33 128 62 69 29 148 64 175 78 146 73 212 78 330 26z m-545 2 c0 -2
-7 -7 -16 -10 -8 -3 -12 -2 -9 4 6 10 25 14 25 6z m-1862 -76 c11 -18 10 -20
-12 -20 -25 0 -37 15 -29 37 6 16 25 7 41 -17z m4344 -444 c11 -16 10 -23 -9
-42 -16 -16 -16 -16 5 -10 34 11 26 -9 -16 -36 -81 -54 -125 29 -47 90 26 21
52 20 67 -2z m-3043 -192 c6 -6 -27 -134 -58 -226 l-28 -83 -7 52 c-5 30 -4
59 3 70 7 14 6 27 -3 44 -6 13 -13 45 -15 70 -2 41 1 49 25 68 25 20 66 22 83
5z m3070 3 c12 -15 5 -27 -16 -27 -7 0 -13 9 -13 20 0 23 13 26 29 7z m181 -4
c16 -19 23 -73 10 -73 -4 0 -13 -13 -20 -30 -8 -18 -20 -30 -31 -30 -11 0 -19
-7 -19 -15 0 -9 -9 -15 -24 -15 -19 0 -23 4 -19 20 3 11 0 20 -5 20 -6 0 -16
18 -22 40 -6 21 -15 42 -20 45 -6 3 -10 10 -10 16 0 9 63 5 80 -6 5 -3 17 6
27 19 21 30 34 32 53 9z m65 -73 c10 -11 24 -20 31 -20 7 0 15 -9 19 -19 3
-10 14 -21 25 -24 18 -5 38 -52 27 -63 -3 -3 -24 0 -47 6 -35 9 -44 9 -53 -4
-18 -23 -61 -30 -76 -12 -15 18 0 39 36 50 19 6 20 9 9 31 -13 25 -10 75 4 75
4 0 15 -9 25 -20z m268 -64 c14 -14 33 -45 42 -70 14 -36 23 -46 40 -46 12 0
34 -11 49 -25 15 -14 32 -25 39 -25 7 0 28 -9 48 -19 32 -17 39 -18 62 -6 14
7 32 12 39 11 34 -6 58 -19 58 -31 0 -7 7 -21 16 -30 13 -12 17 -36 18 -88 l1
-72 -47 -24 c-26 -13 -45 -28 -42 -32 3 -5 -5 -9 -17 -9 -36 0 -99 -22 -99
-35 0 -24 -99 -106 -170 -143 -53 -27 -80 -46 -80 -56 0 -24 35 -46 72 -46 22
0 37 -4 34 -8 -6 -11 30 -42 48 -42 23 0 77 -56 70 -74 -8 -20 -65 -63 -90
-67 -32 -5 -97 12 -125 32 -18 13 -44 19 -78 19 -39 0 -71 9 -129 37 -107 51
-119 73 -64 119 31 25 23 40 -28 54 -60 16 -133 123 -87 128 82 9 182 24 205
31 1 1 5 1 10 2 29 4 44 23 39 52 -8 53 7 69 61 65 43 -3 47 -1 50 21 2 14 11
35 19 48 14 22 13 28 -16 93 -17 39 -31 77 -31 85 0 8 -6 15 -13 15 -16 0 -37
41 -37 71 0 25 46 77 74 82 11 2 24 5 28 6 4 0 18 -10 31 -23z m-1281 -19 c12
-19 -3 -35 -38 -42 -44 -8 -71 9 -52 32 25 30 72 35 90 10z m-2447 -6 c3 -5 1
-12 -5 -16 -5 -3 -10 1 -10 9 0 18 6 21 15 7z m52 -193 c-3 -8 -6 -5 -6 6 -1
11 2 17 5 13 3 -3 4 -12 1 -19z m2608 -28 c3 -5 1 -10 -5 -10 -6 0 -8 -4 -5
-10 4 -6 -7 -10 -24 -10 -29 0 -41 17 -24 33 10 11 51 8 58 -3z m-2625 -50
c-5 -22 -8 -27 -9 -13 -1 21 9 56 14 51 2 -2 0 -19 -5 -38z m-1726 -135 c104
0 120 -2 130 -18 9 -15 7 -21 -9 -33 -26 -20 -158 -14 -183 9 -10 9 -28 13
-42 11 -28 -5 -64 14 -42 23 6 2 9 10 6 15 -5 7 -2 8 7 2 8 -5 67 -9 133 -9z
m5780 -299 c-6 -16 -24 -23 -24 -8 0 10 22 33 27 28 2 -2 1 -11 -3 -20z m-204
-16 c0 -23 -21 -31 -42 -16 -18 13 -12 30 12 38 20 7 30 0 30 -22z m-1373 -50
c-1 -11 -7 -18 -13 -16 -6 2 -16 0 -22 -6 -15 -15 -26 30 -12 47 16 20 49 2
47 -25z m182 -106 c25 -31 27 -46 6 -38 -8 4 -15 12 -15 19 0 8 -7 21 -16 29
-8 9 -11 16 -5 16 5 0 19 -12 30 -26z m36 -64 c3 -5 2 -10 -4 -10 -5 0 -13 5
-16 10 -3 6 -2 10 4 10 5 0 13 -4 16 -10z m107 -73 c13 -21 9 -27 -20 -27 -30
0 -52 16 -52 38 0 18 60 9 72 -11z m-465 -109 c-3 -8 -6 -5 -6 6 -1 11 2 17 5
13 3 -3 4 -12 1 -19z m-2513 -44 c25 -25 20 -54 -8 -54 -32 0 -39 12 -26 44
11 30 13 31 34 10z m2507 -56 c-1 -5 -1 -16 -1 -26 0 -16 -47 -49 -55 -40 -2
2 4 20 12 41 9 23 21 37 30 35 8 -2 14 -6 14 -10z m542 -19 c3 -13 0 -22 -9
-26 -20 -8 -36 10 -28 30 9 24 31 21 37 -4z m-3073 1 c0 -6 10 -14 22 -19 l22
-8 -22 -12 c-42 -22 -80 7 -50 37 15 15 28 16 28 2z m3308 -17 c4 -16 -22 -27
-43 -19 -22 8 -6 38 18 34 11 -2 22 -9 25 -15z m-3251 -25 c-3 -7 -5 -2 -5 12
0 14 2 19 5 13 2 -7 2 -19 0 -25z m2350 -112 c-3 -8 1 -17 9 -20 9 -3 12 -1 9
4 -3 6 -1 10 4 10 6 0 11 -5 11 -11 0 -7 10 -9 25 -5 16 4 25 2 25 -5 0 -7 3
-10 6 -7 10 11 94 -23 87 -34 -3 -7 -1 -8 5 -4 14 9 53 -11 71 -36 10 -14 20
-18 40 -13 19 4 22 3 11 -5 -12 -8 -10 -10 11 -10 40 0 89 -20 89 -37 0 -9 6
-13 15 -9 8 3 15 1 15 -4 0 -15 -120 0 -160 19 -19 10 -58 32 -85 49 -32 20
-85 40 -142 54 l-91 22 21 27 c25 31 32 36 24 15z m-2323 -61 c-4 -8 -10 -15
-15 -15 -5 0 -9 -8 -10 -17 0 -11 -3 -13 -6 -5 -2 6 -11 12 -19 12 -8 0 -14 7
-14 16 0 10 6 14 15 11 8 -4 17 -2 20 3 10 16 35 12 29 -5z m-84 -25 c0 -5 -6
-10 -12 -10 -9 0 -8 -3 2 -10 8 -5 12 -11 9 -14 -7 -7 -59 17 -59 27 0 5 4 6
9 2 5 -3 12 -1 16 5 8 13 35 13 35 0z m30 -20 c0 -5 -5 -10 -11 -10 -5 0 -7 5
-4 10 3 6 8 10 11 10 2 0 4 -4 4 -10z m-92 -22 c-4 -11 -88 -41 -88 -30 0 3
-5 1 -12 -6 -14 -14 -48 -16 -48 -2 0 11 77 33 89 26 5 -3 11 1 15 9 6 17 50
21 44 3z m-158 -42 c0 -9 -19 -18 -50 -25 -62 -13 -60 -13 -60 0 0 5 4 8 9 4
5 -3 13 0 16 6 4 5 13 8 21 5 7 -3 16 -1 20 5 3 6 12 8 20 5 8 -3 14 -1 14 4
0 6 2 10 5 10 3 0 5 -6 5 -14z m3097 -32 c-3 -3 -12 -4 -19 -1 -8 3 -5 6 6 6
11 1 17 -2 13 -5z m-3261 -11 c-10 -11 -37 -12 -30 -2 3 5 12 9 21 9 9 0 13
-3 9 -7z m3307 0 c-7 -2 -19 -2 -25 0 -7 3 -2 5 12 5 14 0 19 -2 13 -5z m67
-19 c23 -9 39 -18 37 -20 -2 -3 -24 4 -48 15 -54 24 -45 27 11 5z m-3670 -84
c-8 -5 -19 -10 -25 -10 -5 0 -3 5 5 10 8 5 20 10 25 10 6 0 3 -5 -5 -10z
m3103 -1387 c-13 -2 -35 -2 -50 0 -16 2 -5 4 22 4 28 0 40 -2 28 -4z m-2084
-19 c2 -2 -22 -5 -55 -5 -32 -1 -48 -4 -34 -6 14 -2 30 -10 35 -17 25 -30 72
-38 186 -31 104 7 112 6 100 -9 -11 -14 -40 -16 -196 -16 l-182 0 2 40 c2 31
-2 40 -14 41 -9 1 -5 5 9 9 23 7 139 2 149 -6z m2103 -11 c10 -9 18 -27 18
-39 0 -23 -2 -23 -122 -26 -68 -2 -150 1 -183 5 -97 12 -199 16 -210 7 -5 -5
-14 -8 -20 -8 -16 0 -35 19 -29 29 2 5 93 6 200 4 l195 -5 37 25 c42 29 87 32
114 8z m-572 -36 c0 -9 -129 -13 -535 -14 -351 -2 -535 0 -535 7 0 6 80 10
218 11 119 1 357 4 527 8 171 3 313 5 318 3 4 -2 7 -9 7 -15z m-1103 -14 c3
-8 -20 -11 -81 -10 -63 2 -86 6 -86 15 0 17 162 13 167 -5z m-56 -174 c71 -24
88 -69 19 -49 -19 6 -57 10 -84 10 -52 0 -53 8 -4 35 30 17 29 17 69 4z m1348
-10 c18 -11 32 -22 30 -23 -2 -2 -37 -2 -76 1 -50 4 -73 10 -73 19 0 29 72 32
119 3z m668 -92 c11 -11 2 -12 -49 -6 -35 4 -78 10 -96 14 -28 7 -31 5 -26
-10 6 -15 1 -16 -42 -10 -59 9 -70 15 -53 27 21 14 250 1 266 -15z m-2653 -20
c16 -12 12 -13 -30 -16 -26 -1 -51 -4 -55 -6 -4 -3 -12 2 -18 9 -10 12 -8 15
11 19 46 9 75 7 92 -6z m-148 -19 c-25 -14 -83 -27 -91 -20 -10 11 39 31 75
31 31 0 33 -1 16 -11z m604 -129 c19 -10 -32 -12 -80 -3 -22 5 -28 9 -18 15
14 9 73 2 98 -12z m188 -157 c6 -18 -15 -14 -22 4 -4 10 -1 14 6 12 6 -2 14
-10 16 -16z m-463 -71 c-6 -5 -26 -12 -45 -15 l-35 -6 30 14 c34 16 64 21 50
7z m2189 -6 c20 -15 20 -15 0 -15 -30 0 -64 11 -64 21 0 14 43 10 64 -6z
m-2267 -31 c-3 -3 -12 -4 -19 -1 -8 3 -5 6 6 6 11 1 17 -2 13 -5z m2973 -89
c35 -18 40 -37 8 -31 -13 3 -41 8 -63 11 -59 9 -76 15 -70 26 10 14 93 10 125
-6z m1720 -374 c12 -24 -13 -54 -39 -47 -9 2 -38 7 -64 11 -56 7 -59 28 -6 33
19 2 38 8 44 13 16 16 54 10 65 -10z m338 -96 c11 -10 -4 -12 -35 -3 -18 5
-33 13 -33 18 0 8 57 -4 68 -15z"/>
<path d="M5990 8451 c-14 -27 -13 -31 11 -31 11 0 18 -4 14 -9 -3 -5 -1 -12 5
-16 5 -3 10 3 10 15 0 11 -7 23 -15 26 -12 5 -13 10 -4 20 8 10 8 14 1 14 -6
0 -16 -9 -22 -19z"/>
<path d="M5822 8394 c1 -9 9 -19 16 -22 9 -3 13 2 10 14 -1 9 -9 19 -16 22 -9
3 -13 -2 -10 -14z"/>
<path d="M4681 7817 c-21 -10 -23 -16 -18 -61 5 -51 26 -79 52 -69 8 2 15 14
17 26 5 31 -9 91 -22 95 -5 2 -8 8 -4 13 6 11 5 11 -25 -4z"/>
<path d="M5200 7784 c0 -8 5 -12 10 -9 6 3 10 10 10 16 0 5 -4 9 -10 9 -5 0
-10 -7 -10 -16z"/>
<path d="M5343 7774 c-18 -8 -16 -43 1 -50 21 -8 58 15 54 34 -3 17 -32 25
-55 16z"/>
<path d="M4360 7265 c0 -28 4 -35 20 -35 12 0 22 9 26 24 7 31 -1 46 -27 46
-15 0 -19 -7 -19 -35z"/>
<path d="M6870 7260 c-12 -8 -11 -10 8 -10 12 0 22 5 22 10 0 13 -11 13 -30 0z"/>
<path d="M6235 6881 c-3 -6 -14 -10 -25 -10 -11 -1 -29 -1 -39 -2 -16 0 -19
-6 -16 -30 5 -40 20 -57 48 -54 12 1 24 4 27 5 13 6 47 4 62 -3 10 -4 38 -2
63 4 43 11 46 13 43 43 -2 21 -11 35 -28 43 -29 15 -126 17 -135 4z"/>
<path d="M6510 4965 c17 -21 107 -65 133 -65 29 0 19 18 -15 25 -18 4 -55 19
-83 33 -39 20 -47 21 -35 7z"/>
</g>
</svg>
